# xmcd
#
# Track frame offsets:
# 150
# 10670
# 25605
# 39042
# 56075
# 68095
# 83710
# 93930
# 104495
# 117615
# 136077
# 146870
# 162287
# 178700
# 190950
# 206622
# 222795
# 234420
# 249032
# 259817
#
# Disc length: 3641 seconds
#
#
# Revision: 2
# Processed by: cddbd v1.5.2PL0 Copyright (c) Steve Scherf et al.
# Submitted via: FreeRIP 2.941 
#
DISCID=0b0e3714
DTITLE=La Dinastia De Tuzantla, Michoacan - Y Ahora Con Banda
DYEAR=1993
DGENRE=Other
TTITLE0=Brindo
TTITLE1=Las Mismas Costumbres
TTITLE2=Vida Mia
TTITLE3=Dos Gotas De Agua
TTITLE4=Amor De Los Dos
TTITLE5=El Dia Que Te Vayas
TTITLE6=Mi Castigo
TTITLE7=Dejo De Quererme
TTITLE8=Que Sacrificio
TTITLE9=Corrido De Los Perez
TTITLE10=La Dinastia
TTITLE11=Dime Morenita
TTITLE12=Ni El Dinero Ni Nada
TTITLE13=Me Gustan Todas
TTITLE14=Por Tu Culpa
TTITLE15=Olvidame
TTITLE16=La Chismosa
TTITLE17=La Que Sea
TTITLE18=Voy De Gallo
TTITLE19=Corrido De Los Perez
EXTD=
EXTT0=
EXTT1=
EXTT2=
EXTT3=
EXTT4=
EXTT5=
EXTT6=
EXTT7=
EXTT8=
EXTT9=
EXTT10=
EXTT11=
EXTT12=
EXTT13=
EXTT14=
EXTT15=
EXTT16=
EXTT17=
EXTT18=
EXTT19=
PLAYORDER=
